# xmcd CD database file
#
# Track frame offsets:
#	150
#	25546
#	51955
#	86355
#	108139
#	151006
#	166930
#	197853
#	229576
#	247417
#	281419
#	308943
#
# Disc length: 4438 seconds
#
# Revision: 0
# Processed by: cddbd v1.5.2PL0 Copyright (c) Steve Scherf et al.
# Submitted via: CDex 1.99.1
#
DISCID=9011540c
DTITLE=Edison, Harry 'Sweets' - Seven Classic Albums CD02
DYEAR=1958
DGENRE=Jazz
TTITLE0=It's The Talk Of The Town
TTITLE1=I Found A New Baby
TTITLE2=Blues For Piney Brown
TTITLE3=Blues For The Blues
TTITLE4=Blues For Bill Basie
TTITLE5=Gee Baby Ain't I Good To You
TTITLE6=You're Getting To Be A Habit With Me
TTITLE7=Taste On The Place
TTITLE8=Moonlight in Vermont
TTITLE9=Pussy Willow
TTITLE10=The Very Though Of You
TTITLE11=Nasty
EXTD=YEAR: 1958
EXTT0=
EXTT1=
EXTT2=
EXTT3=
EXTT4=
EXTT5=
EXTT6=
EXTT7=
EXTT8=
EXTT9=
EXTT10=
EXTT11=
PLAYORDER=
